# Blender v2.79 (sub 0) OBJ File: '35 mph speed limit sign.blend'
# www.blender.org
mtllib 35 mph speed limit sign final.mtl
o Plane_Plane.001
v -1.683368 0.758466 0.186064
v -1.833110 0.948890 0.186064
v -1.740672 0.772961 0.186064
v -1.789252 0.814240 0.186064
v -1.821711 0.876018 0.186064
v 2.108337 0.953558 0.181408
v 1.961731 0.758466 0.186064
v 2.096939 0.880686 0.181408
v 2.067614 0.814240 0.186064
v 2.019034 0.772961 0.186064
v -1.833110 5.584304 0.186064
v -1.683368 5.774728 0.186064
v -1.821711 5.657176 0.186064
v -1.789252 5.718955 0.186064
v -1.740672 5.760233 0.186064
v 1.961731 5.774728 0.186064
v 2.111472 5.584304 0.186064
v 2.019034 5.760233 0.186064
v 2.067614 5.718955 0.186064
v 2.100074 5.657176 0.186064
v -1.833110 0.948890 0.276585
v -1.683368 0.758466 0.276585
v -1.821711 0.876018 0.276585
v -1.789252 0.814240 0.276585
v -1.740672 0.772961 0.276585
v 1.961731 0.758466 0.276585
v 2.108337 0.953558 0.271929
v 2.019034 0.772961 0.276585
v 2.067614 0.814240 0.276585
v 2.096939 0.880686 0.271929
v -1.683368 5.774728 0.276586
v -1.833110 5.584304 0.276586
v -1.740672 5.760233 0.276586
v -1.789252 5.718955 0.276586
v -1.821711 5.657176 0.276586
v 2.111472 5.584304 0.276586
v 1.961731 5.774728 0.276586
v 2.100074 5.657176 0.276586
v 2.067614 5.718955 0.276586
v 2.019034 5.760233 0.276586
v -0.122753 -6.460544 0.182289
v -0.122753 4.527431 0.182289
v -0.122753 -6.460544 -0.182289
v -0.122753 4.527431 -0.182289
v 0.241825 -6.460544 0.182289
v 0.241825 4.527431 0.182289
v 0.241825 -6.460544 -0.182289
v 0.241825 4.527431 -0.182289
vt 0.959305 0.021947
vt 0.959305 0.221081
vt 0.946853 0.221081
vt 0.946853 0.021947
vt 0.562699 0.016162
vt 0.570581 0.016785
vt 0.577263 0.018558
vt 0.581729 0.021212
vt 0.583296 0.024343
vt 0.583296 0.223477
vt 0.581729 0.226608
vt 0.577264 0.229262
vt 0.570581 0.231035
vt 0.562699 0.231658
vt 0.061293 0.231658
vt 0.053410 0.231035
vt 0.046728 0.229262
vt 0.042263 0.226608
vt 0.040695 0.223477
vt 0.041126 0.024543
vt 0.042694 0.021413
vt 0.046728 0.018558
vt 0.053410 0.016785
vt 0.061293 0.016162
vt 0.061293 0.479477
vt 0.053411 0.478855
vt 0.046728 0.477081
vt 0.042263 0.474427
vt 0.040695 0.471297
vt 0.040695 0.272162
vt 0.042263 0.269032
vt 0.046728 0.266378
vt 0.053915 0.264776
vt 0.061798 0.264153
vt 0.562699 0.263982
vt 0.570581 0.264605
vt 0.577263 0.266378
vt 0.581729 0.269032
vt 0.583296 0.272162
vt 0.583296 0.471297
vt 0.581729 0.474427
vt 0.577264 0.477081
vt 0.570581 0.478854
vt 0.562699 0.479477
vt 0.664687 0.219611
vt 0.665327 0.021675
vt 0.677779 0.021675
vt 0.677138 0.219611
vt 0.771621 0.021947
vt 0.771621 0.221081
vt 0.759169 0.221081
vt 0.759169 0.021947
vt 0.946853 0.018816
vt 0.959305 0.018816
vt 0.946853 0.016162
vt 0.959305 0.016162
vt 0.865463 0.226866
vt 0.853011 0.226866
vt 0.853011 0.224212
vt 0.865463 0.224212
vt 0.853011 0.221081
vt 0.865463 0.221081
vt 0.771621 0.224212
vt 0.759169 0.224212
vt 0.771621 0.226866
vt 0.759169 0.226866
vt 0.853011 0.016162
vt 0.865463 0.016162
vt 0.865463 0.018816
vt 0.853011 0.018816
vt 0.865463 0.021947
vt 0.853011 0.021947
vt 0.665327 0.018624
vt 0.677779 0.018624
vt 0.665327 0.016162
vt 0.677779 0.016162
vt 0.759169 0.016162
vt 0.771621 0.016162
vt 0.771621 0.018816
vt 0.759169 0.018816
vt 0.677138 0.222788
vt 0.664687 0.222788
vt 0.677779 0.225790
vt 0.665327 0.225790
vt 0.959305 0.226866
vt 0.946853 0.226866
vt 0.946853 0.224212
vt 0.959305 0.224212
vt 0.282883 0.983838
vt 0.282883 0.511801
vt 0.333032 0.511801
vt 0.333033 0.983838
vt 0.385471 0.511802
vt 0.385471 0.983838
vt 0.335322 0.983838
vt 0.335321 0.511801
vt 0.435316 0.981428
vt 0.435316 0.511801
vt 0.485466 0.511801
vt 0.485466 0.981428
vt 0.434980 0.510825
vt 0.434980 0.982861
vt 0.384830 0.982861
vt 0.384830 0.510825
vt 0.809319 0.311431
vt 0.809319 0.331348
vt 0.759169 0.331348
vt 0.759169 0.311431
vt 0.759169 0.259190
vt 0.809319 0.259190
vt 0.809319 0.279107
vt 0.759169 0.279107
vn 0.0000 -1.0000 0.0000
vn -0.0006 0.0000 -1.0000
vn 0.0006 -0.0000 1.0000
vn 1.0000 -0.0007 0.0000
vn 0.0000 1.0000 0.0000
vn -0.2452 -0.9695 0.0000
vn -0.6475 -0.7620 0.0000
vn -0.8852 -0.4651 0.0000
vn -0.9880 -0.1545 0.0000
vn -0.2452 0.9695 0.0000
vn -0.6475 0.7621 0.0000
vn -0.8852 0.4651 0.0000
vn -0.9880 0.1545 0.0000
vn 0.9880 0.1545 0.0000
vn 0.8852 0.4651 0.0000
vn 0.6475 0.7621 0.0000
vn 0.2452 0.9695 0.0000
vn 0.9880 -0.1545 0.0000
vn 0.9149 -0.4038 0.0000
vn 0.6475 -0.7620 0.0000
vn 0.2452 -0.9695 0.0000
vn -1.0000 -0.0000 0.0000
vn 0.0000 0.0000 -1.0000
vn 1.0000 -0.0000 0.0000
vn 0.0000 -0.0000 1.0000
usemtl Material
s off
f 1/1/1 7/2/1 26/3/1 22/4/1
f 1/5/2 3/6/2 4/7/2 5/8/2 2/9/2 11/10/2 13/11/2 14/12/2 15/13/2 12/14/2 16/15/2 18/16/2 19/17/2 20/18/2 17/19/2 6/20/2 8/21/2 9/22/2 10/23/2 7/24/2
f 21/25/3 23/26/3 24/27/3 25/28/3 22/29/3 26/30/3 28/31/3 29/32/3 30/33/3 27/34/3 36/35/3 38/36/3 39/37/3 40/38/3 37/39/3 31/40/3 33/41/3 34/42/3 35/43/3 32/44/3
f 6/45/4 17/46/4 36/47/4 27/48/4
f 16/49/5 12/50/5 31/51/5 37/52/5
f 1/1/6 22/4/6 25/53/6 3/54/6
f 3/54/7 25/53/7 24/55/7 4/56/7
f 4/57/8 24/58/8 23/59/8 5/60/8
f 5/60/9 23/59/9 21/61/9 2/62/9
f 31/51/10 12/50/10 15/63/10 33/64/10
f 33/64/11 15/63/11 14/65/11 34/66/11
f 34/67/12 14/68/12 13/69/12 35/70/12
f 35/70/13 13/69/13 11/71/13 32/72/13
f 36/47/14 17/46/14 20/73/14 38/74/14
f 38/74/15 20/73/15 19/75/15 39/76/15
f 39/77/16 19/78/16 18/79/16 40/80/16
f 40/80/17 18/79/17 16/49/17 37/52/17
f 6/45/18 27/48/18 30/81/18 8/82/18
f 8/82/19 30/81/19 29/83/19 9/84/19
f 9/85/20 29/86/20 28/87/20 10/88/20
f 10/88/21 28/87/21 26/3/21 7/2/21
f 11/71/22 2/62/22 21/61/22 32/72/22
f 41/89/22 42/90/22 44/91/22 43/92/22
f 43/93/23 44/94/23 48/95/23 47/96/23
f 47/97/24 48/98/24 46/99/24 45/100/24
f 45/101/25 46/102/25 42/103/25 41/104/25
f 43/105/1 47/106/1 45/107/1 41/108/1
f 48/109/5 44/110/5 42/111/5 46/112/5
